<?xml version="1.0" standalone="no"?>
<!DOCTYPE svg PUBLIC "-//W3C//DTD SVG 20010904//EN"
 "http://www.w3.org/TR/2001/REC-SVG-20010904/DTD/svg10.dtd">
<svg version="1.0" xmlns="http://www.w3.org/2000/svg"
 width="626.000000pt" height="626.000000pt" viewBox="0 0 626.000000 626.000000"
 preserveAspectRatio="xMidYMid meet">
<metadata>
Created by potrace 1.11, written by Peter Selinger 2001-2013
</metadata>
<g transform="translate(0.000000,626.000000) scale(0.100000,-0.100000)"
fill="#000000" stroke="none">
<path d="M565 6195 c-232 -62 -396 -210 -478 -430 -39 -103 -48 -269 -23 -380
24 -103 87 -223 158 -300 325 -354 900 -271 1108 160 51 106 64 169 64 295 0
112 -9 157 -51 260 -78 192 -260 347 -463 395 -80 18 -247 19 -315 0z"/>
<path d="M3575 5983 c-100 -7 -345 -53 -466 -87 -323 -92 -566 -209 -885 -427
-187 -128 -444 -365 -589 -543 -212 -261 -392 -634 -456 -945 l-13 -60 1382
-1382 1382 -1381 92 22 c191 47 418 136 593 235 582 325 1098 1005 1290 1699
67 241 80 343 80 621 0 234 -2 259 -28 390 -108 539 -389 985 -872 1379 -91
74 -77 64 -185 135 -393 257 -855 377 -1325 344z"/>
<path d="M1130 3350 c0 -174 49 -447 116 -648 51 -155 67 -273 61 -465 -4
-143 -7 -171 -31 -238 -25 -70 -34 -83 -114 -160 -169 -164 -318 -290 -627
-532 -445 -348 -497 -407 -498 -565 -1 -152 65 -289 213 -446 115 -122 257
-219 375 -257 22 -7 74 -12 115 -12 126 1 203 47 334 203 62 72 317 391 396
494 104 134 288 344 403 457 71 71 115 92 245 118 138 28 407 3 567 -52 125
-44 289 -83 420 -102 140 -19 305 -29 305 -19 0 5 -513 522 -1140 1149 l-1140
1140 0 -65z"/>
</g>
</svg>
